<?xml version="1.0" encoding="UTF-8"?>
<!DOCTYPE svg PUBLIC "-//W3C//DTD SVG 1.1//EN" "http://www.w3.org/Graphics/SVG/1.1/DTD/svg11.dtd">
<svg xmlns="http://www.w3.org/2000/svg" version="1.1" width="512px" height="512px" style="shape-rendering:geometricPrecision; text-rendering:geometricPrecision; image-rendering:optimizeQuality; fill-rule:evenodd; clip-rule:evenodd" xmlns:xlink="http://www.w3.org/1999/xlink">
<g><path style="opacity:0.968" fill="#fefffe" d="M 142.5,103.5 C 243.501,103.333 344.501,103.5 445.5,104C 450.935,105.769 454.768,109.269 457,114.5C 457.667,212.167 457.667,309.833 457,407.5C 454.768,412.731 450.935,416.231 445.5,418C 344.5,418.667 243.5,418.667 142.5,418C 139.888,417.361 137.554,416.194 135.5,414.5C 102.744,365.906 70.577,316.906 39,267.5C 37.8898,261.574 38.5564,255.908 41,250.5C 72.0032,202.49 103.503,154.824 135.5,107.5C 137.765,105.873 140.099,104.539 142.5,103.5 Z M 156.5,139.5 C 244.833,139.5 333.167,139.5 421.5,139.5C 421.5,220.5 421.5,301.5 421.5,382.5C 333.164,382.833 244.831,382.5 156.5,381.5C 130.042,341.419 103.709,301.252 77.5,261C 104.082,220.6 130.416,180.1 156.5,139.5 Z"/></g>
<g><path style="opacity:0.963" fill="#fefffe" d="M 210.5,172.5 C 215.127,172.573 219.46,173.74 223.5,176C 243.333,195.833 263.167,215.667 283,235.5C 302.833,215.667 322.667,195.833 342.5,176C 350.956,170.993 358.789,171.826 366,178.5C 372.722,186.293 373.055,194.293 367,202.5C 347.5,222 328,241.5 308.5,261C 328,280.5 347.5,300 367,319.5C 373.824,331.368 371.324,340.868 359.5,348C 353.507,350.28 347.84,349.613 342.5,346C 322.667,326.167 302.833,306.333 283,286.5C 263.167,306.333 243.333,326.167 223.5,346C 211.626,351.907 202.46,349.073 196,337.5C 194.89,331.574 195.556,325.908 198,320.5C 217.833,300.667 237.667,280.833 257.5,261C 237.667,241.167 217.833,221.333 198,201.5C 191.839,187.17 196.006,177.503 210.5,172.5 Z"/></g>
</svg>
