<?xml version="1.0" encoding="UTF-8"?>
<!DOCTYPE svg PUBLIC "-//W3C//DTD SVG 1.1//EN" "http://www.w3.org/Graphics/SVG/1.1/DTD/svg11.dtd">
<svg xmlns="http://www.w3.org/2000/svg" version="1.1" width="512px" height="512px" style="shape-rendering:geometricPrecision; text-rendering:geometricPrecision; image-rendering:optimizeQuality; fill-rule:evenodd; clip-rule:evenodd" xmlns:xlink="http://www.w3.org/1999/xlink">
<g><path style="opacity:1" fill="#fefffe" d="M 221.5,18.5 C 242.836,18.3334 264.169,18.5 285.5,19C 311.706,24.7029 326.039,40.8695 328.5,67.5C 351.198,67.0894 373.865,67.5894 396.5,69C 418.667,75.1667 432.833,89.3333 439,111.5C 440.51,123.795 440.843,136.128 440,148.5C 435.802,160.523 427.302,165.19 414.5,162.5C 414.667,250.501 414.5,338.501 414,426.5C 409.017,453.816 393.184,471.316 366.5,479C 328.871,480.151 291.204,480.651 253.5,480.5C 217.5,480.333 181.5,480.167 145.5,480C 116.892,474.726 99.3921,457.892 93,429.5C 92.5,340.501 92.3333,251.501 92.5,162.5C 85.4177,163.357 78.751,162.191 72.5,159C 70.0439,156.592 68.2106,153.759 67,150.5C 66.3333,138.5 66.3333,126.5 67,114.5C 71.9626,90.2042 86.4626,75.0376 110.5,69C 132.804,67.7574 155.138,67.0907 177.5,67C 181.23,40.7757 195.897,24.609 221.5,18.5 Z M 224.5,51.5 C 243.836,51.3334 263.17,51.5 282.5,52C 289.937,54.6007 294.27,59.7673 295.5,67.5C 267.5,67.5 239.5,67.5 211.5,67.5C 212.532,59.414 216.865,54.0807 224.5,51.5 Z M 118.5,100.5 C 208.501,100.333 298.501,100.5 388.5,101C 402.166,105.017 408.332,114.183 407,128.5C 304.57,129.499 202.07,129.832 99.5,129.5C 97.6276,114.204 103.961,104.537 118.5,100.5 Z M 125.5,162.5 C 210.833,162.5 296.167,162.5 381.5,162.5C 381.667,249.501 381.5,336.501 381,423.5C 378.269,435.898 370.769,443.731 358.5,447C 288.167,447.667 217.833,447.667 147.5,447C 136.307,443.807 129.14,436.64 126,425.5C 125.5,337.834 125.333,250.167 125.5,162.5 Z"/></g>
<g><path style="opacity:1" fill="#fefffe" d="M 185.5,216.5 C 193.918,216.32 199.751,220.32 203,228.5C 203.667,281.5 203.667,334.5 203,387.5C 197.564,398.09 189.397,400.924 178.5,396C 173.905,393.075 171.405,388.909 171,383.5C 170.333,332.833 170.333,282.167 171,231.5C 172.681,223.321 177.514,218.321 185.5,216.5 Z"/></g>
<g><path style="opacity:1" fill="#fefffe" d="M 254.5,216.5 C 261.577,217.789 266.41,221.789 269,228.5C 269.667,281.5 269.667,334.5 269,387.5C 262.21,399.416 253.043,401.583 241.5,394C 239.064,391.293 237.564,388.127 237,384.5C 236.333,333.5 236.333,282.5 237,231.5C 239.061,221.93 244.894,216.93 254.5,216.5 Z"/></g>
<g><path style="opacity:1" fill="#fefffe" d="M 319.5,216.5 C 327.254,217.755 332.421,222.088 335,229.5C 335.667,281.833 335.667,334.167 335,386.5C 329.309,398.729 320.476,401.563 308.5,395C 305.769,392.374 303.936,389.207 303,385.5C 302.333,333.833 302.333,282.167 303,230.5C 305.335,221.991 310.835,217.324 319.5,216.5 Z"/></g>
</svg>
