<?xml version="1.0" encoding="UTF-8"?>
<!DOCTYPE svg PUBLIC "-//W3C//DTD SVG 1.1//EN" "http://www.w3.org/Graphics/SVG/1.1/DTD/svg11.dtd">
<svg xmlns="http://www.w3.org/2000/svg" version="1.1" width="512px" height="512px" style="shape-rendering:geometricPrecision; text-rendering:geometricPrecision; image-rendering:optimizeQuality; fill-rule:evenodd; clip-rule:evenodd" xmlns:xlink="http://www.w3.org/1999/xlink">
<g><path style="opacity:1" fill="#fefffe" d="M 208.5,119.5 C 240.168,119.333 271.835,119.5 303.5,120C 308.371,120.864 312.204,123.364 315,127.5C 318.604,138.311 322.604,148.977 327,159.5C 329.592,162.762 332.759,165.262 336.5,167C 367.119,168.303 397.785,168.97 428.5,169C 436.655,172.149 441.488,177.982 443,186.5C 443.667,244.167 443.667,301.833 443,359.5C 441.512,367.998 436.678,373.498 428.5,376C 390.5,376.667 352.5,376.667 314.5,376C 353.632,347.635 369.132,309.469 361,261.5C 348.286,216.451 319.12,188.951 273.5,179C 229.28,173.37 193.78,188.204 167,223.5C 140.187,266.847 141.187,309.514 170,351.5C 177.579,361.082 186.413,369.248 196.5,376C 158.5,376.667 120.5,376.667 82.5,376C 74.827,372.994 69.9937,367.494 68,359.5C 67.3333,301.833 67.3333,244.167 68,186.5C 69.5258,177.97 74.3592,172.137 82.5,169C 113.215,168.97 143.881,168.303 174.5,167C 179.284,164.55 183.117,161.05 186,156.5C 189.136,146.759 192.469,137.092 196,127.5C 199.378,123.406 203.545,120.739 208.5,119.5 Z M 220.5,137.5 C 243.836,137.333 267.169,137.5 290.5,138C 293,139.167 294.833,141 296,143.5C 296.499,147.152 296.665,150.818 296.5,154.5C 269.167,154.5 241.833,154.5 214.5,154.5C 213.067,147.395 215.067,141.728 220.5,137.5 Z M 376.5,191.5 C 390.504,191.333 404.504,191.5 418.5,192C 419.333,192.833 420.167,193.667 421,194.5C 421.667,201.833 421.667,209.167 421,216.5C 420.167,217.333 419.333,218.167 418.5,219C 403.74,219.966 389.073,219.633 374.5,218C 373.352,209.912 373.185,201.746 374,193.5C 374.995,192.934 375.828,192.267 376.5,191.5 Z M 246.5,240.5 C 272.652,237.982 290.152,248.982 299,273.5C 303.749,300.732 293.249,319.232 267.5,329C 243.246,333.788 225.413,325.288 214,303.5C 205.275,272.28 216.109,251.28 246.5,240.5 Z"/></g>
<g><path style="opacity:1" fill="#fefffe" d="M 117.5,146.5 C 125.943,146.062 134.277,146.562 142.5,148C 143.701,148.903 144.535,150.069 145,151.5C 145.499,155.152 145.665,158.818 145.5,162.5C 134.828,162.667 124.161,162.5 113.5,162C 111.483,155.951 112.817,150.784 117.5,146.5 Z"/></g>
<g><path style="opacity:1" fill="#fefffe" d="M 244.5,193.5 C 282.059,191.034 311.559,205.034 333,235.5C 352.882,270.251 352.216,304.585 331,338.5C 299.494,376.752 260.66,386.585 214.5,368C 176.612,346.058 160.112,313.225 165,269.5C 171.717,237.86 189.55,215.027 218.5,201C 227.117,197.851 235.783,195.351 244.5,193.5 Z M 246.5,240.5 C 216.109,251.28 205.275,272.28 214,303.5C 225.413,325.288 243.246,333.788 267.5,329C 293.249,319.232 303.749,300.732 299,273.5C 290.152,248.982 272.652,237.982 246.5,240.5 Z"/></g>
</svg>
