<?xml version="1.0" encoding="UTF-8"?>
<!DOCTYPE svg PUBLIC "-//W3C//DTD SVG 1.1//EN" "http://www.w3.org/Graphics/SVG/1.1/DTD/svg11.dtd">
<svg xmlns="http://www.w3.org/2000/svg" version="1.1" width="512px" height="512px" style="shape-rendering:geometricPrecision; text-rendering:geometricPrecision; image-rendering:optimizeQuality; fill-rule:evenodd; clip-rule:evenodd" xmlns:xlink="http://www.w3.org/1999/xlink">
<g><path style="opacity:0.981" fill="#fefffe" d="M 64.5,40.5 C 191.834,40.3333 319.167,40.5 446.5,41C 464.945,46.7897 472.778,59.2897 470,78.5C 466.427,90.4056 458.594,97.9056 446.5,101C 319.167,101.667 191.833,101.667 64.5,101C 44.0744,94.3225 36.5744,80.4892 42,59.5C 46.6654,49.6573 54.1654,43.3239 64.5,40.5 Z"/></g>
<g><path style="opacity:0.98" fill="#fefffe" d="M 125.5,130.5 C 212.501,130.333 299.501,130.5 386.5,131C 404.945,136.79 412.778,149.29 410,168.5C 406.427,180.406 398.594,187.906 386.5,191C 299.5,191.667 212.5,191.667 125.5,191C 105.074,184.323 97.5744,170.489 103,149.5C 107.665,139.657 115.165,133.324 125.5,130.5 Z"/></g>
<g><path style="opacity:0.981" fill="#fefffe" d="M 64.5,223.5 C 191.834,223.333 319.167,223.5 446.5,224C 464.945,229.79 472.778,242.29 470,261.5C 466.427,273.406 458.594,280.906 446.5,284C 319.167,284.667 191.833,284.667 64.5,284C 44.0744,277.323 36.5744,263.489 42,242.5C 46.6654,232.657 54.1654,226.324 64.5,223.5 Z"/></g>
<g><path style="opacity:0.98" fill="#fefffe" d="M 125.5,317.5 C 212.501,317.333 299.501,317.5 386.5,318C 404.945,323.79 412.778,336.29 410,355.5C 406.427,367.406 398.594,374.906 386.5,378C 299.5,378.667 212.5,378.667 125.5,378C 105.074,371.323 97.5744,357.489 103,336.5C 107.665,326.657 115.165,320.324 125.5,317.5 Z"/></g>
<g><path style="opacity:0.981" fill="#fefffe" d="M 64.5,410.5 C 191.834,410.333 319.167,410.5 446.5,411C 464.945,416.79 472.778,429.29 470,448.5C 466.427,460.406 458.594,467.906 446.5,471C 319.167,471.667 191.833,471.667 64.5,471C 44.0744,464.323 36.5744,450.489 42,429.5C 46.6654,419.657 54.1654,413.324 64.5,410.5 Z"/></g>
</svg>
