<?xml version="1.0" encoding="UTF-8"?>
<!DOCTYPE svg PUBLIC "-//W3C//DTD SVG 1.1//EN" "http://www.w3.org/Graphics/SVG/1.1/DTD/svg11.dtd">
<svg xmlns="http://www.w3.org/2000/svg" version="1.1" width="512px" height="512px" style="shape-rendering:geometricPrecision; text-rendering:geometricPrecision; image-rendering:optimizeQuality; fill-rule:evenodd; clip-rule:evenodd" xmlns:xlink="http://www.w3.org/1999/xlink">
<g><path style="opacity:0.981" fill="#000000" d="M 318.5,47.5 C 326.997,47.4992 334.664,49.9992 341.5,55C 382.667,96.1667 423.833,137.333 465,178.5C 473.368,190.351 474.702,203.017 469,216.5C 403.887,282.946 338.054,348.779 271.5,414C 334.5,414.333 397.5,414.667 460.5,415C 471.917,419.544 475.417,427.711 471,439.5C 468.337,443.161 464.837,445.661 460.5,447C 347.833,447.667 235.167,447.667 122.5,447C 118.615,446.261 114.948,444.927 111.5,443C 84.0279,416.528 56.8612,389.695 30,362.5C 22.6667,349.5 22.6667,336.5 30,323.5C 119.527,233.639 209.361,144.139 299.5,55C 305.293,50.7977 311.627,48.2977 318.5,47.5 Z M 187.5,212.5 C 227.916,251.415 267.916,290.915 307.5,331C 279.833,358.667 252.167,386.333 224.5,414C 192.5,414.667 160.5,414.667 128.5,414C 104.833,390.333 81.1667,366.667 57.5,343C 101.035,299.632 144.368,256.132 187.5,212.5 Z"/></g>
</svg>
