<?xml version="1.0" encoding="UTF-8"?>
<!DOCTYPE svg PUBLIC "-//W3C//DTD SVG 1.1//EN" "http://www.w3.org/Graphics/SVG/1.1/DTD/svg11.dtd">
<svg xmlns="http://www.w3.org/2000/svg" version="1.1" width="512px" height="512px" style="shape-rendering:geometricPrecision; text-rendering:geometricPrecision; image-rendering:optimizeQuality; fill-rule:evenodd; clip-rule:evenodd" xmlns:xlink="http://www.w3.org/1999/xlink">
<g><path style="opacity:0.891" fill="#fefffe" d="M 256.5,43.5 C 308.52,43.0507 360.52,43.5507 412.5,45C 435.333,52.3413 449.333,67.8413 454.5,91.5C 455.833,194.833 455.833,298.167 454.5,401.5C 449.333,424.834 435.333,440 412.5,447C 307.167,447.667 201.833,447.667 96.5,447C 73.3545,440.352 59.3545,425.185 54.5,401.5C 53.1667,348.833 53.1667,296.167 54.5,243.5C 60.7101,218.124 76.3768,202.291 101.5,196C 129.118,195.186 156.618,195.352 184,196.5C 185.329,195.506 186.662,194.506 188,193.5C 188.772,193.645 189.439,193.978 190,194.5C 195.009,190.42 198.842,185.92 201.5,181C 200.903,179.111 200.569,177.278 200.5,175.5C 200.846,174.304 201.346,174.304 202,175.5C 202.333,145.5 202.667,115.5 203,85.5C 203.333,85.8333 203.667,86.1667 204,86.5C 211.687,61.0404 229.187,46.7071 256.5,43.5 Z M 253.5,79.5 C 303.838,79.1667 354.171,79.5001 404.5,80.5C 410.735,82.5691 415.235,86.5691 418,92.5C 418.833,195.168 418.667,297.835 417.5,400.5C 415.023,406.972 410.356,410.972 403.5,412.5C 304.167,413.833 204.833,413.833 105.5,412.5C 98.7028,410.869 93.8695,406.869 91,400.5C 90.1667,348.497 90.3334,296.497 91.5,244.5C 93.9735,239.526 97.6402,235.693 102.5,233C 128.5,232.667 154.5,232.333 180.5,232C 210.459,229.433 229.292,213.599 237,184.5C 237.167,154.494 237.667,124.494 238.5,94.5C 241.247,87.0859 246.247,82.0859 253.5,79.5 Z"/></g>
<g><path style="opacity:0.004" fill="#fefffe" d="M 219.5,55.5 C 220.833,56.1667 220.833,56.1667 219.5,55.5 Z"/></g>
<g><path style="opacity:0.004" fill="#fefffe" d="M 217.5,57.5 C 218.833,58.1667 218.833,58.1667 217.5,57.5 Z"/></g>
<g><path style="opacity:0.004" fill="#fefffe" d="M 215.5,59.5 C 216.833,60.1667 216.833,60.1667 215.5,59.5 Z"/></g>
<g><path style="opacity:0.004" fill="#fefffe" d="M 213.5,61.5 C 214.833,62.1667 214.833,62.1667 213.5,61.5 Z"/></g>
<g><path style="opacity:0.004" fill="#fefffe" d="M 445.5,65.5 C 446.833,66.1667 446.833,66.1667 445.5,65.5 Z"/></g>
<g><path style="opacity:0.897" fill="#fefffe" d="M 338.5,143.5 C 348.316,143.823 355.15,148.49 359,157.5C 359.48,193.147 359.647,228.647 359.5,264C 357.297,272.001 355.631,280.001 354.5,288C 350.909,309.329 339.576,325.662 320.5,337C 306.574,343.719 291.574,347.386 275.5,348C 252.088,348.645 228.755,348.645 205.5,348C 215.489,353.715 224.655,360.549 233,368.5C 233.216,370.384 233.883,372.051 235,373.5C 235.779,386.261 229.779,393.261 217,394.5C 208.894,393.088 201.894,389.421 196,383.5C 193.908,383.071 191.908,381.738 190,379.5C 189.667,379.833 189.333,380.167 189,380.5C 187.64,378.895 186.14,377.395 184.5,376C 167.766,364.949 151.266,353.449 135,341.5C 127.713,333.674 127.88,326.007 135.5,318.5C 159.643,300.594 184.31,283.427 209.5,267C 223.571,263.474 232.238,268.808 235.5,283C 234.896,289.49 231.896,294.656 226.5,298.5C 219.754,303.431 212.421,308.265 204.5,313C 226.167,313.667 247.833,313.667 269.5,313C 275.701,312.064 281.867,311.231 288,310.5C 307.786,306.366 319.119,294.033 322,273.5C 322.224,265.457 322.891,257.457 324,249.5C 324.167,217.495 324.667,185.495 325.5,153.5C 328.611,148.459 332.944,145.125 338.5,143.5 Z"/></g>
<g><path style="opacity:0.004" fill="#fefffe" d="M 68.5,210.5 C 69.8333,211.167 69.8333,211.167 68.5,210.5 Z"/></g>
<g><path style="opacity:0.004" fill="#fefffe" d="M 433.5,438.5 C 434.833,439.167 434.833,439.167 433.5,438.5 Z"/></g>
</svg>
