<?xml version="1.0" encoding="UTF-8"?>
<!DOCTYPE svg PUBLIC "-//W3C//DTD SVG 1.1//EN" "http://www.w3.org/Graphics/SVG/1.1/DTD/svg11.dtd">
<svg xmlns="http://www.w3.org/2000/svg" version="1.1" width="512px" height="512px" style="shape-rendering:geometricPrecision; text-rendering:geometricPrecision; image-rendering:optimizeQuality; fill-rule:evenodd; clip-rule:evenodd" xmlns:xlink="http://www.w3.org/1999/xlink">
<g><path style="opacity:0.968" fill="#000000" d="M 325.5,73.5 C 326.922,73.7086 328.255,74.2086 329.5,75C 325.588,82.308 322.421,89.808 320,97.5C 336.74,78.4317 357.573,71.9317 382.5,78C 397.271,80.3034 410.104,86.4701 421,96.5C 425.207,101.775 427.873,107.775 429,114.5C 430.016,123.029 430.849,131.529 431.5,140C 421.209,171.628 400.542,193.628 369.5,206C 359.149,209.921 348.482,212.588 337.5,214C 319.232,216.369 300.899,218.035 282.5,219C 304.004,224.22 325.671,224.887 347.5,221C 356.45,219.544 365.283,217.71 374,215.5C 375.678,216.466 376.345,217.799 376,219.5C 349.394,240.106 322.227,259.94 294.5,279C 284.779,284.527 274.779,289.527 264.5,294C 271.821,295.093 279.154,296.093 286.5,297C 287.357,297.689 288.023,298.522 288.5,299.5C 262.253,318.442 232.92,329.942 200.5,334C 188.854,335.513 177.187,336.847 165.5,338C 176.227,345.696 187.894,351.696 200.5,356C 199.789,357.255 198.956,358.421 198,359.5C 177.24,358.673 156.406,358.173 135.5,358C 134.833,357.333 134.167,356.667 133.5,356C 149.931,319.618 171.098,286.451 197,256.5C 227.768,221.756 262.268,191.59 300.5,166C 332.957,146.11 367.624,131.11 404.5,121C 380.432,121.614 357.432,126.948 335.5,137C 299.236,152.953 266.903,174.62 238.5,202C 197.57,241.57 162.736,285.736 134,334.5C 118.801,363.102 106.134,392.768 96,423.5C 90.3697,425.872 84.5363,427.872 78.5,429.5C 87.294,396.037 99.9607,363.87 116.5,333C 99.778,289.902 108.111,252.569 141.5,221C 142.908,220.685 144.241,221.018 145.5,222C 138.768,243.325 135.268,265.159 135,287.5C 138.8,254.434 148.8,223.434 165,194.5C 174.848,178.33 187.348,164.496 202.5,153C 214.672,144.744 227.338,137.244 240.5,130.5C 241.5,131 242.5,131.5 243.5,132C 239.631,144.304 236.798,156.804 235,169.5C 243.932,146.287 255.932,124.954 271,105.5C 277.525,98.8286 284.691,92.9952 292.5,88C 303.355,82.5663 314.355,77.733 325.5,73.5 Z"/></g>
<g><path style="opacity:0.92" fill="#000000" d="M 393.5,343.5 C 399.499,343.002 401.666,345.669 400,351.5C 391.362,366.142 380.528,378.976 367.5,390C 354.776,399.466 340.443,404.799 324.5,406C 312.833,406.667 301.167,406.667 289.5,406C 260.472,402.913 231.472,399.58 202.5,396C 185.469,394.247 168.803,395.913 152.5,401C 136.79,406.691 121.456,413.191 106.5,420.5C 106.167,420.167 105.833,419.833 105.5,419.5C 107.938,415.558 110.938,412.058 114.5,409C 147.242,387.48 183.242,377.813 222.5,380C 246.856,382.813 271.189,385.813 295.5,389C 320.101,392.684 342.434,387.35 362.5,373C 373.032,363.3 383.365,353.467 393.5,343.5 Z"/></g>
</svg>
