<?xml version="1.0" encoding="UTF-8"?>
<!DOCTYPE svg PUBLIC "-//W3C//DTD SVG 1.1//EN" "http://www.w3.org/Graphics/SVG/1.1/DTD/svg11.dtd">
<svg xmlns="http://www.w3.org/2000/svg" version="1.1" width="512px" height="512px" style="shape-rendering:geometricPrecision; text-rendering:geometricPrecision; image-rendering:optimizeQuality; fill-rule:evenodd; clip-rule:evenodd" xmlns:xlink="http://www.w3.org/1999/xlink">
<g><path style="opacity:0.981" fill="#000000" d="M 57.5,40.5 C 184.834,40.3333 312.167,40.5 439.5,41C 457.945,46.7897 465.778,59.2897 463,78.5C 459.427,90.4056 451.594,97.9056 439.5,101C 312.167,101.667 184.833,101.667 57.5,101C 37.0744,94.3225 29.5744,80.4892 35,59.5C 39.6654,49.6573 47.1654,43.3239 57.5,40.5 Z"/></g>
<g><path style="opacity:0.98" fill="#000000" d="M 57.5,130.5 C 144.501,130.333 231.501,130.5 318.5,131C 336.945,136.79 344.778,149.29 342,168.5C 338.427,180.406 330.594,187.906 318.5,191C 231.5,191.667 144.5,191.667 57.5,191C 37.0744,184.323 29.5744,170.489 35,149.5C 39.6654,139.657 47.1654,133.324 57.5,130.5 Z"/></g>
<g><path style="opacity:0.981" fill="#000000" d="M 57.5,223.5 C 184.834,223.333 312.167,223.5 439.5,224C 457.945,229.79 465.778,242.29 463,261.5C 459.427,273.406 451.594,280.906 439.5,284C 312.167,284.667 184.833,284.667 57.5,284C 37.0744,277.323 29.5744,263.489 35,242.5C 39.6654,232.657 47.1654,226.324 57.5,223.5 Z"/></g>
<g><path style="opacity:0.98" fill="#000000" d="M 57.5,316.5 C 144.501,316.333 231.501,316.5 318.5,317C 336.945,322.79 344.778,335.29 342,354.5C 338.427,366.406 330.594,373.906 318.5,377C 231.5,377.667 144.5,377.667 57.5,377C 37.0744,370.323 29.5744,356.489 35,335.5C 39.6654,325.657 47.1654,319.324 57.5,316.5 Z"/></g>
<g><path style="opacity:0.981" fill="#000000" d="M 57.5,410.5 C 184.834,410.333 312.167,410.5 439.5,411C 457.945,416.79 465.778,429.29 463,448.5C 459.427,460.406 451.594,467.906 439.5,471C 312.167,471.667 184.833,471.667 57.5,471C 37.0744,464.323 29.5744,450.489 35,429.5C 39.6654,419.657 47.1654,413.324 57.5,410.5 Z"/></g>
</svg>
