<?xml version="1.0" encoding="UTF-8"?>
<!DOCTYPE svg PUBLIC "-//W3C//DTD SVG 1.1//EN" "http://www.w3.org/Graphics/SVG/1.1/DTD/svg11.dtd">
<svg xmlns="http://www.w3.org/2000/svg" version="1.1" width="512px" height="512px" style="shape-rendering:geometricPrecision; text-rendering:geometricPrecision; image-rendering:optimizeQuality; fill-rule:evenodd; clip-rule:evenodd" xmlns:xlink="http://www.w3.org/1999/xlink">
<g><path style="opacity:0.942" fill="#000000" d="M 72.5,90.5 C 77.1667,90.5 81.8333,90.5 86.5,90.5C 86.5,117.833 86.5,145.167 86.5,172.5C 81.2384,172.805 76.0717,172.471 71,171.5C 70.6667,150.833 70.3333,130.167 70,109.5C 67.0565,111.223 63.8898,112.223 60.5,112.5C 60.334,107.156 60.5006,101.823 61,96.5C 64.8473,94.3281 68.6807,92.3281 72.5,90.5 Z"/></g>
<g><path style="opacity:0.98" fill="#000000" d="M 174.5,101.5 C 265.501,101.333 356.501,101.5 447.5,102C 465.945,107.79 473.778,120.29 471,139.5C 467.427,151.406 459.594,158.906 447.5,162C 356.5,162.667 265.5,162.667 174.5,162C 153.234,155.308 145.734,141.142 152,119.5C 156.991,110.267 164.491,104.267 174.5,101.5 Z"/></g>
<g><path style="opacity:0.936" fill="#000000" d="M 72.5,210.5 C 80.4689,209.992 87.8022,211.825 94.5,216C 98.5898,220.348 100.923,225.515 101.5,231.5C 101.055,237.451 99.5552,243.118 97,248.5C 89.6205,258.091 82.1205,267.591 74.5,277C 83.4938,277.5 92.4938,277.666 101.5,277.5C 101.5,282.833 101.5,288.167 101.5,293.5C 85.5,293.5 69.5,293.5 53.5,293.5C 53.334,288.156 53.5006,282.823 54,277.5C 62.6667,266.167 71.3333,254.833 80,243.5C 82.572,240.287 84.072,236.62 84.5,232.5C 83.9138,228.273 81.4138,226.273 77,226.5C 72.2306,226.988 69.3972,229.655 68.5,234.5C 63.2079,235.495 57.8746,235.828 52.5,235.5C 52.7773,221.902 59.444,213.569 72.5,210.5 Z"/></g>
<g><path style="opacity:0.98" fill="#000000" d="M 174.5,223.5 C 265.501,223.333 356.501,223.5 447.5,224C 465.945,229.79 473.778,242.29 471,261.5C 467.427,273.406 459.594,280.906 447.5,284C 356.5,284.667 265.5,284.667 174.5,284C 153.234,277.308 145.734,263.142 152,241.5C 156.991,232.267 164.491,226.267 174.5,223.5 Z"/></g>
<g><path style="opacity:0.932" fill="#000000" d="M 73.5,332.5 C 94.0244,332.195 102.524,342.195 99,362.5C 97.4267,366.827 94.5933,369.993 90.5,372C 98.0552,376.438 101.722,383.104 101.5,392C 100.834,407.666 92.6676,415.499 77,415.5C 61.4236,415.811 52.5902,408.311 50.5,393C 56.1959,392.17 61.8625,392.337 67.5,393.5C 71.444,401.097 76.6107,402.097 83,396.5C 86.6878,384.198 82.1878,378.864 69.5,380.5C 69.3341,375.489 69.5007,370.489 70,365.5C 81.7066,366.424 85.3733,361.424 81,350.5C 74.4166,347.376 70.25,349.543 68.5,357C 63.1771,357.499 57.8437,357.666 52.5,357.5C 53.4168,343.926 60.4168,335.593 73.5,332.5 Z"/></g>
<g><path style="opacity:0.98" fill="#000000" d="M 174.5,345.5 C 265.501,345.333 356.501,345.5 447.5,346C 465.945,351.79 473.778,364.29 471,383.5C 467.427,395.406 459.594,402.906 447.5,406C 356.5,406.667 265.5,406.667 174.5,406C 153.234,399.308 145.734,385.142 152,363.5C 156.991,354.267 164.491,348.267 174.5,345.5 Z"/></g>
</svg>
