<?xml version="1.0" encoding="UTF-8"?>
<!DOCTYPE svg PUBLIC "-//W3C//DTD SVG 1.1//EN" "http://www.w3.org/Graphics/SVG/1.1/DTD/svg11.dtd">
<svg xmlns="http://www.w3.org/2000/svg" version="1.1" width="512px" height="512px" style="shape-rendering:geometricPrecision; text-rendering:geometricPrecision; image-rendering:optimizeQuality; fill-rule:evenodd; clip-rule:evenodd" xmlns:xlink="http://www.w3.org/1999/xlink">
<g><path style="opacity:0.982" fill="#fefffe" d="M 41.5,80.5 C 183.834,80.3333 326.167,80.5 468.5,81C 486.945,86.7897 494.778,99.2897 492,118.5C 488.427,130.406 480.594,137.906 468.5,141C 326.167,141.667 183.833,141.667 41.5,141C 21.0744,134.323 13.5744,120.489 19,99.5C 23.6654,89.6573 31.1654,83.3239 41.5,80.5 Z"/></g>
<g><path style="opacity:0.982" fill="#fefffe" d="M 42.5,227.5 C 184.834,227.333 327.167,227.5 469.5,228C 491.916,236.007 498.75,251.173 490,273.5C 485.356,281.407 478.523,286.24 469.5,288C 327.167,288.667 184.833,288.667 42.5,288C 22.0744,281.323 14.5744,267.489 20,246.5C 24.6654,236.657 32.1654,230.324 42.5,227.5 Z"/></g>
<g><path style="opacity:0.982" fill="#fefffe" d="M 42.5,369.5 C 184.834,369.333 327.167,369.5 469.5,370C 491.916,378.007 498.75,393.173 490,415.5C 485.356,423.407 478.523,428.24 469.5,430C 327.167,430.667 184.833,430.667 42.5,430C 22.0744,423.323 14.5744,409.489 20,388.5C 24.6654,378.657 32.1654,372.324 42.5,369.5 Z"/></g>
</svg>
