<?xml version="1.0" standalone="no"?>
<!DOCTYPE svg PUBLIC "-//W3C//DTD SVG 20010904//EN"
 "http://www.w3.org/TR/2001/REC-SVG-20010904/DTD/svg10.dtd">
<svg version="1.0" xmlns="http://www.w3.org/2000/svg"
 width="512.000000pt" height="512.000000pt" viewBox="0 0 512.000000 512.000000"
 preserveAspectRatio="xMidYMid meet">

<g transform="translate(0.000000,512.000000) scale(0.100000,-0.100000)"
fill="#000000" stroke="none">
<path d="M435 4300 c-141 -21 -255 -153 -255 -295 0 -111 78 -229 182 -276
l53 -24 2140 0 2140 0 53 24 c104 47 182 165 182 276 0 111 -78 229 -182 276
l-53 24 -2105 1 c-1158 1 -2128 -2 -2155 -6z"/>
<path d="M445 2830 c-141 -21 -255 -153 -255 -295 0 -111 78 -229 182 -276
l53 -24 2140 0 2140 0 53 24 c104 47 182 165 182 276 0 111 -78 229 -182 276
l-53 24 -2105 1 c-1158 1 -2128 -2 -2155 -6z"/>
<path d="M445 1410 c-141 -21 -255 -153 -255 -295 0 -111 78 -229 182 -276
l53 -24 2140 0 2140 0 53 24 c104 47 182 165 182 276 0 111 -78 229 -182 276
l-53 24 -2105 1 c-1158 1 -2128 -2 -2155 -6z"/>
</g>
</svg>
