<?xml version="1.0" encoding="UTF-8"?>
<!DOCTYPE svg PUBLIC "-//W3C//DTD SVG 1.1//EN" "http://www.w3.org/Graphics/SVG/1.1/DTD/svg11.dtd">
<svg xmlns="http://www.w3.org/2000/svg" version="1.1" width="512px" height="512px" style="shape-rendering:geometricPrecision; text-rendering:geometricPrecision; image-rendering:optimizeQuality; fill-rule:evenodd; clip-rule:evenodd" xmlns:xlink="http://www.w3.org/1999/xlink">
<g><path style="opacity:0.974" fill="#fefffe" d="M 121.5,62.5 C 137.886,61.3975 147.219,68.8975 149.5,85C 149.454,88.1372 148.788,91.1372 147.5,94C 147.833,94.5 148.167,95 148.5,95.5C 207.784,58.6728 269.784,53.5061 334.5,80C 390.811,107.072 426.977,150.905 443,211.5C 457.712,286.024 437.545,349.191 382.5,401C 322.982,449.032 256.982,460.365 184.5,435C 114.484,404.499 74.3169,351.333 64,275.5C 63.3333,266.5 63.3333,257.5 64,248.5C 69.6511,235.947 79.1511,231.447 92.5,235C 99.4276,237.594 103.928,242.427 106,249.5C 107.318,315.697 137.484,363.197 196.5,392C 255.805,414.505 309.471,405.172 357.5,364C 405.57,313.645 416.403,256.145 390,191.5C 359.048,133.593 310.548,105.426 244.5,107C 220.716,108.873 198.716,116.04 178.5,128.5C 189.642,134.124 193.809,143.124 191,155.5C 188.742,163.389 183.575,168.222 175.5,170C 150.167,170.667 124.833,170.667 99.5,170C 86.6976,165.236 81.5309,156.069 84,142.5C 91.3333,120.5 98.6667,98.5 106,76.5C 109.049,69.407 114.215,64.7403 121.5,62.5 Z"/></g>
</svg>
