<?xml version="1.0" encoding="UTF-8"?>
<!DOCTYPE svg PUBLIC "-//W3C//DTD SVG 1.1//EN" "http://www.w3.org/Graphics/SVG/1.1/DTD/svg11.dtd">
<svg xmlns="http://www.w3.org/2000/svg" version="1.1" width="512px" height="512px" style="shape-rendering:geometricPrecision; text-rendering:geometricPrecision; image-rendering:optimizeQuality; fill-rule:evenodd; clip-rule:evenodd" xmlns:xlink="http://www.w3.org/1999/xlink">
<g><path style="opacity:0.981" fill="#fefffe" d="M 71.5,40.5 C 198.834,40.3333 326.167,40.5 453.5,41C 475.916,49.0068 482.75,64.1735 474,86.5C 469.356,94.4071 462.523,99.2404 453.5,101C 326.167,101.667 198.833,101.667 71.5,101C 51.0744,94.3225 43.5744,80.4892 49,59.5C 53.6654,49.6573 61.1654,43.3239 71.5,40.5 Z"/></g>
<g><path style="opacity:0.98" fill="#fefffe" d="M 192.5,130.5 C 279.501,130.333 366.501,130.5 453.5,131C 475.916,139.007 482.75,154.173 474,176.5C 469.356,184.407 462.523,189.24 453.5,191C 366.5,191.667 279.5,191.667 192.5,191C 172.074,184.323 164.574,170.489 170,149.5C 174.665,139.657 182.165,133.324 192.5,130.5 Z"/></g>
<g><path style="opacity:0.981" fill="#fefffe" d="M 71.5,223.5 C 198.834,223.333 326.167,223.5 453.5,224C 475.916,232.007 482.75,247.173 474,269.5C 469.356,277.407 462.523,282.24 453.5,284C 326.167,284.667 198.833,284.667 71.5,284C 51.0744,277.323 43.5744,263.489 49,242.5C 53.6654,232.657 61.1654,226.324 71.5,223.5 Z"/></g>
<g><path style="opacity:0.98" fill="#fefffe" d="M 192.5,316.5 C 279.501,316.333 366.501,316.5 453.5,317C 475.916,325.007 482.75,340.173 474,362.5C 469.356,370.407 462.523,375.24 453.5,377C 366.5,377.667 279.5,377.667 192.5,377C 172.074,370.323 164.574,356.489 170,335.5C 174.665,325.657 182.165,319.324 192.5,316.5 Z"/></g>
<g><path style="opacity:0.981" fill="#fefffe" d="M 71.5,410.5 C 198.834,410.333 326.167,410.5 453.5,411C 475.916,419.007 482.75,434.173 474,456.5C 469.356,464.407 462.523,469.24 453.5,471C 326.167,471.667 198.833,471.667 71.5,471C 51.0744,464.323 43.5744,450.489 49,429.5C 53.6654,419.657 61.1654,413.324 71.5,410.5 Z"/></g>
</svg>
