<?xml version="1.0" encoding="UTF-8"?>
<!DOCTYPE svg PUBLIC "-//W3C//DTD SVG 1.1//EN" "http://www.w3.org/Graphics/SVG/1.1/DTD/svg11.dtd">
<svg xmlns="http://www.w3.org/2000/svg" version="1.1" width="512px" height="512px" style="shape-rendering:geometricPrecision; text-rendering:geometricPrecision; image-rendering:optimizeQuality; fill-rule:evenodd; clip-rule:evenodd" xmlns:xlink="http://www.w3.org/1999/xlink">
<g><path style="opacity:0.006" fill="#fefffe" d="M 62.5,193.5 C 63.8823,191.102 65.549,190.935 67.5,193C 65.8659,193.494 64.1992,193.66 62.5,193.5 Z"/></g>
<g><path style="opacity:0.006" fill="#fefffe" d="M 80.5,193.5 C 78.8008,193.66 77.1341,193.494 75.5,193C 77.5847,190.861 79.2513,191.028 80.5,193.5 Z"/></g>
<g><path style="opacity:0.006" fill="#fefffe" d="M 429.5,193.5 C 430.749,191.028 432.415,190.861 434.5,193C 432.866,193.494 431.199,193.66 429.5,193.5 Z"/></g>
<g><path style="opacity:0.006" fill="#fefffe" d="M 447.5,193.5 C 445.801,193.66 444.134,193.494 442.5,193C 444.451,190.935 446.118,191.102 447.5,193.5 Z"/></g>
<g><path style="opacity:0.007" fill="#fefffe" d="M 62.5,193.5 C 62.0517,195.465 61.0517,195.798 59.5,194.5C 60.325,193.614 61.325,193.281 62.5,193.5 Z"/></g>
<g><path style="opacity:0.007" fill="#fefffe" d="M 80.5,193.5 C 84.5,194.167 84.5,194.833 80.5,195.5C 80.5,194.833 80.5,194.167 80.5,193.5 Z"/></g>
<g><path style="opacity:0.007" fill="#fefffe" d="M 429.5,193.5 C 429.5,194.167 429.5,194.833 429.5,195.5C 425.5,194.833 425.5,194.167 429.5,193.5 Z"/></g>
<g><path style="opacity:0.007" fill="#fefffe" d="M 447.5,193.5 C 448.675,193.281 449.675,193.614 450.5,194.5C 448.948,195.798 447.948,195.465 447.5,193.5 Z"/></g>
<g><path style="opacity:0.921" fill="#fefffe" d="M 80.5,195.5 C 83.4883,197.818 86.4883,200.152 89.5,202.5C 90.566,204.852 91.7327,207.186 93,209.5C 93.5,231.497 93.6666,253.497 93.5,275.5C 201.167,275.5 308.833,275.5 416.5,275.5C 416.333,253.497 416.5,231.497 417,209.5C 418.267,207.186 419.434,204.852 420.5,202.5C 423.512,200.152 426.512,197.818 429.5,195.5C 435.113,194.215 440.78,194.215 446.5,195.5C 449.863,197.875 453.197,200.209 456.5,202.5C 457.201,204.908 458.201,207.242 459.5,209.5C 460.833,241.167 460.833,272.833 459.5,304.5C 458.201,306.758 457.201,309.092 456.5,311.5C 453.197,313.791 449.863,316.125 446.5,318.5C 318.833,319.833 191.167,319.833 63.5,318.5C 60.1538,316.149 56.8205,313.815 53.5,311.5C 52.799,309.092 51.799,306.758 50.5,304.5C 49.1667,272.833 49.1667,241.167 50.5,209.5C 51.799,207.242 52.799,204.908 53.5,202.5C 56.8033,200.209 60.1366,197.875 63.5,195.5C 69.2201,194.215 74.8867,194.215 80.5,195.5 Z"/></g>
<g><path style="opacity:0.005" fill="#fefffe" d="M 53.5,202.5 C 52.2223,202.782 51.2223,203.449 50.5,204.5C 51.6119,201.134 53.6119,198.301 56.5,196C 57.3317,195.312 57.9984,195.479 58.5,196.5C 56.4689,198.31 54.8022,200.31 53.5,202.5 Z"/></g>
<g><path style="opacity:0.005" fill="#fefffe" d="M 89.5,202.5 C 88.4566,199.944 86.7899,197.777 84.5,196C 87.4362,196.893 89.9362,198.726 92,201.5C 92.6667,202.5 92.6667,203.5 92,204.5C 91.5831,203.244 90.7498,202.577 89.5,202.5 Z"/></g>
<g><path style="opacity:0.005" fill="#fefffe" d="M 420.5,202.5 C 419.25,202.577 418.417,203.244 418,204.5C 417.333,203.5 417.333,202.5 418,201.5C 420.064,198.726 422.564,196.893 425.5,196C 423.21,197.777 421.543,199.944 420.5,202.5 Z"/></g>
<g><path style="opacity:0.005" fill="#fefffe" d="M 459.5,204.5 C 458.778,203.449 457.778,202.782 456.5,202.5C 455.287,200.272 453.62,198.272 451.5,196.5C 452.002,195.479 452.668,195.312 453.5,196C 456.388,198.301 458.388,201.134 459.5,204.5 Z"/></g>
<g><path style="opacity:0.007" fill="#fefffe" d="M 50.5,204.5 C 50.5386,205.756 50.0386,206.756 49,207.5C 48.4153,206.002 48.9153,205.002 50.5,204.5 Z"/></g>
<g><path style="opacity:0.005" fill="#fefffe" d="M 93.5,204.5 C 95.332,205.14 95.6653,206.14 94.5,207.5C 93.6143,206.675 93.281,205.675 93.5,204.5 Z"/></g>
<g><path style="opacity:0.005" fill="#fefffe" d="M 415.5,204.5 C 416.776,205.386 416.776,206.386 415.5,207.5C 414.438,206.575 414.438,205.575 415.5,204.5 Z"/></g>
<g><path style="opacity:0.007" fill="#fefffe" d="M 459.5,204.5 C 461.085,205.002 461.585,206.002 461,207.5C 459.961,206.756 459.461,205.756 459.5,204.5 Z"/></g>
<g><path style="opacity:0.005" fill="#fefffe" d="M 46.5,209.5 C 47.6935,209.97 48.3601,210.97 48.5,212.5C 47.526,243.217 47.1927,273.884 47.5,304.5C 46.5001,272.84 46.1668,241.174 46.5,209.5 Z"/></g>
<g><path style="opacity:0.007" fill="#fefffe" d="M 95.5,209.5 C 96.6946,209.866 97.3613,210.699 97.5,212C 96.5178,231.799 96.1845,251.633 96.5,271.5C 202.167,271.5 307.833,271.5 413.5,271.5C 413.809,251.806 413.476,232.139 412.5,212.5C 412.556,211.263 413.056,210.263 414,209.5C 414.5,230.831 414.667,252.164 414.5,273.5C 308.167,273.5 201.833,273.5 95.5,273.5C 95.4614,251.988 95.4614,230.655 95.5,209.5 Z"/></g>
<g><path style="opacity:0.005" fill="#fefffe" d="M 461.5,209.5 C 462.833,224.986 463.499,240.819 463.5,257C 463.167,272.833 462.833,288.667 462.5,304.5C 462.832,272.877 462.498,241.21 461.5,209.5 Z"/></g>
<g><path style="opacity:0.007" fill="#fefffe" d="M 50.5,309.5 C 48.9153,308.998 48.4153,307.998 49,306.5C 50.0386,307.244 50.5386,308.244 50.5,309.5 Z"/></g>
<g><path style="opacity:0.007" fill="#fefffe" d="M 459.5,309.5 C 459.461,308.244 459.961,307.244 461,306.5C 461.585,307.998 461.085,308.998 459.5,309.5 Z"/></g>
<g><path style="opacity:0.005" fill="#fefffe" d="M 50.5,309.5 C 51.2223,310.551 52.2223,311.218 53.5,311.5C 54.241,313.354 55.241,315.021 56.5,316.5C 54.9826,316.489 53.8159,315.823 53,314.5C 51.5619,313.1 50.7286,311.433 50.5,309.5 Z"/></g>
<g><path style="opacity:0.005" fill="#fefffe" d="M 459.5,309.5 C 458.388,312.866 456.388,315.699 453.5,318C 452.668,318.688 452.002,318.521 451.5,317.5C 453.531,315.69 455.198,313.69 456.5,311.5C 457.778,311.218 458.778,310.551 459.5,309.5 Z"/></g>
<g><path style="opacity:0.004" fill="#fefffe" d="M 56.5,316.5 C 57.2891,316.783 57.9558,317.283 58.5,318C 57.184,318.528 56.5173,318.028 56.5,316.5 Z"/></g>
<g><path style="opacity:0.007" fill="#fefffe" d="M 62.5,320.5 C 61.325,320.719 60.325,320.386 59.5,319.5C 61.0517,318.202 62.0517,318.535 62.5,320.5 Z"/></g>
<g><path style="opacity:0.007" fill="#fefffe" d="M 447.5,320.5 C 447.948,318.535 448.948,318.202 450.5,319.5C 449.675,320.386 448.675,320.719 447.5,320.5 Z"/></g>
<g><path style="opacity:0.006" fill="#fefffe" d="M 62.5,320.5 C 64.1992,320.34 65.8659,320.506 67.5,321C 65.549,323.065 63.8823,322.898 62.5,320.5 Z"/></g>
<g><path style="opacity:0.006" fill="#fefffe" d="M 447.5,320.5 C 446.118,322.898 444.451,323.065 442.5,321C 444.134,320.506 445.801,320.34 447.5,320.5 Z"/></g>
</svg>
