<?xml version="1.0" encoding="UTF-8"?>
<!DOCTYPE svg PUBLIC "-//W3C//DTD SVG 1.1//EN" "http://www.w3.org/Graphics/SVG/1.1/DTD/svg11.dtd">
<svg xmlns="http://www.w3.org/2000/svg" version="1.1" width="512px" height="512px" style="shape-rendering:geometricPrecision; text-rendering:geometricPrecision; image-rendering:optimizeQuality; fill-rule:evenodd; clip-rule:evenodd" xmlns:xlink="http://www.w3.org/1999/xlink">
<g><path style="opacity:0.99" fill="#fefffe" d="M 39.5,50.5 C 183.5,50.3333 327.5,50.5 471.5,51C 483.406,54.5731 490.906,62.4064 494,74.5C 494.667,192.833 494.667,311.167 494,429.5C 491.364,442.136 483.864,450.302 471.5,454C 327.5,454.667 183.5,454.667 39.5,454C 27.1356,450.302 19.6356,442.136 17,429.5C 16.3333,311.167 16.3333,192.833 17,74.5C 20.2809,62.3901 27.7809,54.3901 39.5,50.5 Z M 77.5,151.5 C 126.833,151.5 176.167,151.5 225.5,151.5C 225.5,180.833 225.5,210.167 225.5,239.5C 176.167,239.5 126.833,239.5 77.5,239.5C 77.5,210.167 77.5,180.833 77.5,151.5 Z M 286.5,151.5 C 335.5,151.5 384.5,151.5 433.5,151.5C 433.5,180.833 433.5,210.167 433.5,239.5C 384.5,239.5 335.5,239.5 286.5,239.5C 286.5,210.167 286.5,180.833 286.5,151.5 Z M 77.5,300.5 C 126.833,300.5 176.167,300.5 225.5,300.5C 225.5,331.5 225.5,362.5 225.5,393.5C 176.167,393.5 126.833,393.5 77.5,393.5C 77.5,362.5 77.5,331.5 77.5,300.5 Z M 286.5,300.5 C 335.5,300.5 384.5,300.5 433.5,300.5C 433.5,331.5 433.5,362.5 433.5,393.5C 384.5,393.5 335.5,393.5 286.5,393.5C 286.5,362.5 286.5,331.5 286.5,300.5 Z"/></g>
</svg>
