<?xml version="1.0" encoding="UTF-8"?>
<!DOCTYPE svg PUBLIC "-//W3C//DTD SVG 1.1//EN" "http://www.w3.org/Graphics/SVG/1.1/DTD/svg11.dtd">
<svg xmlns="http://www.w3.org/2000/svg" version="1.1" width="512px" height="512px" style="shape-rendering:geometricPrecision; text-rendering:geometricPrecision; image-rendering:optimizeQuality; fill-rule:evenodd; clip-rule:evenodd" xmlns:xlink="http://www.w3.org/1999/xlink">
<g><path style="opacity:0.937" fill="#000000" d="M 67.5,99.5 C 87.8215,96.5698 101.655,104.57 109,123.5C 112.421,143.835 104.587,157.668 85.5,165C 64.8808,168.922 51.0474,161.088 44,141.5C 40.7055,121.075 48.5388,107.075 67.5,99.5 Z"/></g>
<g><path style="opacity:0.98" fill="#000000" d="M 174.5,101.5 C 265.501,101.333 356.501,101.5 447.5,102C 465.945,107.79 473.778,120.29 471,139.5C 467.427,151.406 459.594,158.906 447.5,162C 356.5,162.667 265.5,162.667 174.5,162C 153.234,155.308 145.734,141.142 152,119.5C 156.991,110.267 164.491,104.267 174.5,101.5 Z"/></g>
<g><path style="opacity:0.937" fill="#000000" d="M 67.5,221.5 C 87.8215,218.57 101.655,226.57 109,245.5C 112.421,265.835 104.587,279.668 85.5,287C 64.8808,290.922 51.0474,283.088 44,263.5C 40.7055,243.075 48.5388,229.075 67.5,221.5 Z"/></g>
<g><path style="opacity:0.98" fill="#000000" d="M 174.5,223.5 C 265.501,223.333 356.501,223.5 447.5,224C 465.945,229.79 473.778,242.29 471,261.5C 467.427,273.406 459.594,280.906 447.5,284C 356.5,284.667 265.5,284.667 174.5,284C 153.234,277.308 145.734,263.142 152,241.5C 156.991,232.267 164.491,226.267 174.5,223.5 Z"/></g>
<g><path style="opacity:0.937" fill="#000000" d="M 67.5,343.5 C 87.8215,340.57 101.655,348.57 109,367.5C 112.421,387.835 104.587,401.668 85.5,409C 64.8808,412.922 51.0474,405.088 44,385.5C 40.7055,365.075 48.5388,351.075 67.5,343.5 Z"/></g>
<g><path style="opacity:0.98" fill="#000000" d="M 174.5,345.5 C 265.501,345.333 356.501,345.5 447.5,346C 465.945,351.79 473.778,364.29 471,383.5C 467.427,395.406 459.594,402.906 447.5,406C 356.5,406.667 265.5,406.667 174.5,406C 153.234,399.308 145.734,385.142 152,363.5C 156.991,354.267 164.491,348.267 174.5,345.5 Z"/></g>
</svg>
