<?xml version="1.0" encoding="UTF-8"?>
<!DOCTYPE svg PUBLIC "-//W3C//DTD SVG 1.1//EN" "http://www.w3.org/Graphics/SVG/1.1/DTD/svg11.dtd">
<svg xmlns="http://www.w3.org/2000/svg" version="1.1" width="512px" height="512px" style="shape-rendering:geometricPrecision; text-rendering:geometricPrecision; image-rendering:optimizeQuality; fill-rule:evenodd; clip-rule:evenodd" xmlns:xlink="http://www.w3.org/1999/xlink">
<g><path style="opacity:0.996" fill="#010101" d="M 247.5,59.5 C 275.301,57.3575 296.468,68.0241 311,91.5C 314.532,98.0949 316.865,105.095 318,112.5C 318.667,160.833 318.667,209.167 318,257.5C 313.302,280.534 300.135,296.701 278.5,306C 242.322,315.988 215.488,304.488 198,271.5C 196.356,266.923 195.022,262.256 194,257.5C 193.333,209.167 193.333,160.833 194,112.5C 200.452,83.2143 218.285,65.5476 247.5,59.5 Z"/></g>
<g><path style="opacity:0.987" fill="#010101" d="M 146.5,195.5 C 156.954,194.808 164.454,199.141 169,208.5C 170.014,227.158 171.014,245.825 172,264.5C 180.135,297.968 200.635,319.801 233.5,330C 273.775,338.429 305.608,325.929 329,292.5C 335.27,281.961 339.27,270.628 341,258.5C 341.333,243.167 341.667,227.833 342,212.5C 346.225,198.636 355.391,193.47 369.5,197C 376.679,200.183 380.846,205.683 382,213.5C 382.794,230.524 382.461,247.524 381,264.5C 372.222,313.606 344.722,347.439 298.5,366C 291.33,368.558 283.997,370.391 276.5,371.5C 276.5,382.5 276.5,393.5 276.5,404.5C 293.57,404.043 310.57,404.543 327.5,406C 339.012,413.895 341.512,424.061 335,436.5C 331.731,439.883 327.897,442.383 323.5,444C 278.5,444.667 233.5,444.667 188.5,444C 173.806,437.591 169.972,427.091 177,412.5C 179.205,409.96 181.705,407.793 184.5,406C 201.43,404.543 218.43,404.043 235.5,404.5C 235.5,393.5 235.5,382.5 235.5,371.5C 189.121,362.287 156.621,335.953 138,292.5C 131.487,273.381 128.654,253.715 129.5,233.5C 129.401,225.441 129.901,217.441 131,209.5C 133.877,202.114 139.044,197.448 146.5,195.5 Z"/></g>
</svg>
